<?xml version="1.0" standalone="no"?>
<!DOCTYPE svg PUBLIC "-//W3C//DTD SVG 20010904//EN"
 "http://www.w3.org/TR/2001/REC-SVG-20010904/DTD/svg10.dtd">
<svg version="1.0" xmlns="http://www.w3.org/2000/svg"
 width="4096.000000pt" height="1025.000000pt" viewBox="0 0 4096.000000 1025.000000"
 preserveAspectRatio="xMidYMid meet">

<g transform="translate(0.000000,1025.000000) scale(0.100000,-0.100000)"
fill="#000000" stroke="none">
<path d="M4670 10243 c-635 -15 -1283 -153 -1872 -400 l-138 -58 0 -1088 c0
-868 3 -1087 13 -1081 6 5 46 35 87 68 296 235 739 461 1119 571 555 159 1169
172 1716 34 480 -121 920 -340 1298 -644 l57 -47 -2 1093 -3 1092 -115 49
c-683 289 -1416 428 -2160 411z"/>
<path d="M12900 7895 c-722 -79 -1325 -441 -1704 -1022 -139 -212 -263 -509
-320 -764 -48 -216 -60 -336 -60 -589 0 -330 33 -541 129 -829 248 -742 836
-1285 1604 -1481 217 -56 369 -73 636 -74 372 0 631 46 945 170 775 307 1295
994 1417 1874 34 249 18 620 -38 895 -157 757 -669 1375 -1376 1659 -368 147
-820 207 -1233 161z m590 -509 c435 -73 786 -273 1064 -606 222 -267 365 -602
417 -985 16 -115 16 -412 0 -535 -68 -517 -310 -966 -676 -1252 -318 -248
-677 -369 -1100 -370 -249 0 -451 35 -666 117 -607 232 -1026 790 -1120 1495
-18 132 -15 450 5 577 74 473 256 829 576 1126 279 260 632 413 1040 451 84 8
374 -4 460 -18z"/>
<path d="M38370 7899 c-451 -51 -845 -250 -1070 -540 -76 -99 -160 -258 -191
-364 -49 -171 -69 -380 -50 -545 38 -335 164 -568 406 -754 105 -81 142 -104
263 -165 149 -75 233 -107 597 -231 488 -166 668 -242 801 -341 108 -79 183
-192 220 -329 24 -90 25 -291 1 -380 -67 -252 -271 -448 -575 -551 -135 -46
-239 -62 -397 -61 -398 2 -740 168 -934 455 l-32 48 -107 -88 c-262 -214 -347
-286 -350 -292 -1 -4 28 -44 64 -90 223 -277 590 -461 1044 -522 145 -20 471
-17 610 4 280 44 492 119 705 250 117 72 305 251 374 357 86 133 147 289 178
455 23 124 22 389 -1 507 -74 383 -280 641 -666 833 -139 70 -308 135 -650
250 -469 158 -648 242 -788 370 -81 74 -136 157 -165 250 -18 59 -22 94 -22
215 0 133 2 152 29 233 79 242 281 413 577 492 326 85 649 51 903 -97 68 -40
216 -177 262 -243 l21 -30 64 55 c35 30 136 117 223 193 l159 139 -89 87
c-255 251 -536 380 -929 427 -129 15 -364 17 -485 3z"/>
<path d="M27520 5525 l0 -2275 270 0 270 0 0 1907 c0 1141 4 1903 9 1898 8 -9
246 -563 1274 -2970 l354 -830 168 0 168 0 357 835 c197 459 561 1312 810
1895 249 583 456 1064 461 1069 5 6 9 -768 9 -1897 l0 -1907 269 0 270 0 4
108 c3 59 3 679 1 1377 -2 699 -4 1674 -4 2168 l0 897 -389 0 -388 0 -25 -57
c-14 -32 -287 -656 -606 -1388 -791 -1813 -921 -2108 -930 -2117 -5 -5 -76
148 -159 339 -305 704 -1385 3198 -1390 3211 -4 9 -94 12 -404 12 l-399 0 0
-2275z"/>
<path d="M33340 5525 l0 -2275 270 0 270 0 0 1020 0 1020 348 0 347 -1 615
-1019 615 -1020 332 0 332 0 -412 668 c-226 367 -515 836 -643 1042 -127 206
-230 376 -229 378 2 2 45 12 98 23 118 24 305 88 405 138 328 165 544 455 607
815 17 101 20 353 5 461 -25 172 -86 348 -163 467 -143 221 -410 391 -732 467
-316 75 -576 90 -1517 91 l-548 0 0 -2275z m1640 1751 c335 -44 547 -155 664
-349 83 -139 114 -370 74 -562 -48 -235 -203 -397 -464 -484 -204 -69 -454
-91 -1021 -91 l-353 0 0 756 0 757 488 -6 c360 -4 519 -10 612 -21z"/>
<path d="M467 7593 c-3 -5 -28 -64 -57 -133 -216 -517 -340 -1027 -391 -1600
-15 -175 -15 -646 0 -825 50 -570 174 -1082 389 -1597 l57 -138 1094 0 c873 0
1092 3 1084 13 -5 6 -35 44 -65 82 -301 379 -524 853 -633 1340 -66 296 -91
682 -66 986 53 631 283 1232 659 1726 48 63 93 124 101 134 13 19 -9 19 -1077
19 -600 0 -1093 -3 -1095 -7z"/>
<path d="M7005 7533 c758 -938 946 -2226 488 -3348 -104 -257 -276 -551 -455
-782 l-79 -103 1093 0 1093 0 68 166 c162 393 275 806 338 1233 68 462 68
1030 0 1492 -66 447 -197 912 -364 1294 l-43 100 -1093 3 -1093 2 47 -57z"/>
<path d="M17740 6319 c-301 -35 -595 -183 -824 -415 -45 -46 -85 -84 -89 -84
-4 0 -7 97 -7 215 l0 215 -250 0 -250 0 0 -2235 0 -2235 250 0 250 0 2 1003 3
1002 50 -75 c168 -255 485 -450 840 -516 148 -28 422 -26 565 5 446 95 807
364 1019 761 129 243 191 500 191 796 0 691 -380 1260 -985 1474 -238 84 -522
117 -765 89z m311 -464 c383 -51 687 -295 826 -665 65 -173 90 -451 59 -645
-98 -592 -560 -955 -1152 -904 -261 23 -473 117 -645 289 -155 155 -255 355
-300 600 -19 106 -17 354 4 460 91 460 388 771 812 854 147 29 246 31 396 11z"/>
<path d="M21445 6318 c-532 -60 -975 -374 -1191 -844 -208 -453 -204 -1032 10
-1477 191 -398 520 -668 944 -776 306 -79 720 -63 1023 39 227 75 385 175 565
354 66 67 129 135 141 151 l21 30 -184 143 c-100 78 -187 142 -192 142 -5 0
-37 -31 -71 -70 -159 -179 -388 -310 -613 -350 -172 -32 -385 -29 -520 5 -83
22 -235 94 -312 149 -88 63 -205 189 -265 287 -77 126 -137 295 -155 442 -5
42 -3 47 14 48 11 1 25 3 30 4 6 1 543 3 1195 4 l1185 1 0 93 c0 411 -78 738
-242 1015 -50 84 -87 130 -183 227 -66 67 -147 139 -180 160 -126 83 -309 161
-455 195 -160 36 -390 48 -565 28z m321 -458 c301 -38 531 -185 653 -420 62
-118 86 -204 106 -367 l6 -53 -946 0 -946 0 7 48 c19 131 83 293 164 412 52
77 184 199 267 249 187 111 449 161 689 131z"/>
<path d="M25130 6315 c-279 -44 -540 -189 -699 -390 -31 -39 -67 -92 -81 -118
-14 -26 -28 -47 -32 -47 -5 0 -8 33 -8 73 0 39 -3 150 -7 245 l-6 172 -236 0
-236 0 8 -142 c4 -79 10 -754 13 -1500 l5 -1358 249 0 249 0 3 848 c4 831 4
849 27 962 94 482 328 733 744 796 117 18 268 14 362 -11 270 -70 431 -279
475 -615 5 -44 10 -472 10 -1027 l0 -953 250 0 250 0 0 983 c0 566 -4 1021
-10 1075 -48 452 -254 771 -595 920 -205 89 -498 124 -735 87z"/>
<path d="M22810 2119 c-145 -13 -261 -69 -365 -173 -75 -76 -118 -148 -156
-261 -34 -101 -34 -287 0 -395 29 -94 47 -130 105 -206 168 -225 505 -300 765
-173 69 34 176 129 169 150 -2 7 -25 30 -50 52 l-46 38 -48 -47 c-169 -164
-455 -157 -624 16 -92 94 -140 217 -140 363 0 150 38 259 127 357 98 110 202
154 346 148 108 -4 178 -31 249 -97 l44 -40 57 40 c31 22 57 44 57 49 0 11
-79 82 -121 108 -91 56 -235 83 -369 71z"/>
<path d="M28660 2122 c-178 -12 -342 -97 -439 -224 -215 -286 -173 -698 94
-915 178 -144 448 -175 661 -74 56 26 170 122 176 147 2 6 -19 30 -46 52 l-49
41 -51 -46 c-260 -235 -668 -100 -751 248 -58 246 45 490 251 595 76 38 79 39
188 39 99 0 117 -3 168 -27 31 -14 77 -45 102 -68 l45 -42 55 42 c31 24 56 46
56 50 0 16 -100 100 -147 123 -84 43 -211 67 -313 59z"/>
<path d="M29852 2118 c-204 -18 -381 -131 -477 -303 -60 -107 -80 -193 -79
-335 0 -108 4 -136 27 -206 63 -189 213 -337 402 -397 101 -32 300 -32 400 0
144 46 273 148 348 274 144 245 104 590 -91 788 -137 139 -315 199 -530 179z
m280 -171 c124 -62 214 -171 255 -309 20 -68 19 -223 -2 -295 -41 -143 -130
-252 -250 -309 -276 -131 -583 10 -669 308 -20 69 -21 223 -2 293 29 109 113
227 200 283 89 57 151 72 276 69 111 -2 118 -4 192 -40z"/>
<path d="M33880 2118 c-108 -12 -177 -44 -246 -112 -78 -78 -98 -132 -92 -249
4 -96 24 -143 83 -203 49 -48 108 -78 266 -132 217 -75 259 -112 259 -228 0
-122 -109 -206 -267 -206 -60 1 -83 6 -137 32 -40 18 -76 45 -92 65 l-26 35
-57 -47 c-31 -26 -58 -48 -60 -50 -10 -6 34 -57 77 -88 137 -100 372 -112 541
-28 135 68 206 230 167 381 -34 134 -102 190 -322 267 -164 57 -190 69 -227
104 -42 38 -57 74 -57 133 0 120 98 198 248 198 87 0 134 -16 187 -63 l45 -39
27 20 c16 11 42 34 58 52 l30 32 -35 30 c-89 77 -225 112 -370 96z"/>
<path d="M35860 2119 c-163 -17 -295 -112 -332 -239 -15 -54 -15 -160 0 -216
15 -51 79 -126 138 -160 24 -14 112 -50 195 -79 83 -30 169 -66 191 -80 91
-61 102 -196 23 -278 -110 -113 -336 -106 -438 13 l-32 38 -63 -51 -62 -51 41
-42 c79 -81 197 -123 343 -124 245 0 417 144 417 352 0 88 -22 155 -71 210
-49 56 -118 93 -294 157 -210 76 -250 112 -250 224 1 117 89 189 240 195 93 4
144 -12 207 -68 l37 -32 56 47 55 48 -33 34 c-75 78 -217 117 -368 102z"/>
<path d="M18037 2008 c-4 -46 -7 -318 -7 -605 l0 -523 75 0 75 0 2 506 3 505
215 -503 215 -503 46 -3 46 -3 206 483 c113 266 212 497 219 513 11 25 13 -53
16 -482 l2 -513 70 0 70 0 0 605 0 606 -106 -3 -106 -3 -57 -130 c-290 -660
-355 -805 -361 -798 -4 4 -78 170 -163 368 -86 198 -176 405 -200 460 l-45
100 -104 3 -105 3 -6 -83z"/>
<path d="M19590 1485 l0 -605 400 0 400 0 0 65 0 65 -257 2 c-142 2 -288 3
-326 3 l-67 0 0 218 0 217 290 0 290 0 0 65 0 65 -290 0 -290 0 0 68 c0 38 -3
124 -7 190 l-6 122 311 0 312 0 0 65 0 65 -380 0 -380 0 0 -605z"/>
<path d="M20590 1485 l0 -605 259 0 c300 0 361 9 489 71 135 65 224 166 280
318 34 92 42 270 17 373 -41 171 -151 312 -295 381 -130 62 -165 67 -474 67
l-276 0 0 -605z m570 461 c117 -29 203 -85 260 -167 80 -117 101 -308 50 -470
-68 -221 -256 -311 -612 -293 l-128 7 0 468 0 469 188 0 c123 -1 206 -5 242
-14z"/>
<path d="M21887 1773 c-4 -174 -7 -446 -7 -605 l0 -288 75 0 75 0 0 605 0 605
-68 0 -69 0 -6 -317z"/>
<path d="M23825 1848 c-290 -654 -425 -960 -425 -964 0 -3 37 -4 82 -2 l81 3
61 145 62 145 304 0 304 0 61 -145 61 -145 82 -3 c45 -2 82 1 82 6 0 8 -247
594 -284 674 -8 18 -62 143 -120 278 l-104 245 -70 3 -69 3 -108 -243z m294
-234 c61 -154 111 -286 111 -292 0 -9 -63 -12 -240 -12 -140 0 -240 4 -240 9
0 9 27 74 177 434 36 87 69 154 73 150 4 -4 57 -134 119 -289z"/>
<path d="M24750 1485 l0 -605 350 0 350 0 0 65 0 65 -182 0 c-101 0 -227 3
-280 7 l-98 6 0 534 0 533 -70 0 -70 0 0 -605z"/>
<path d="M26080 1485 l0 -605 75 0 75 0 0 274 0 274 91 -2 91 -3 163 -269 163
-269 91 -3 91 -3 -63 103 c-205 331 -277 449 -277 453 0 2 25 11 56 20 66 19
95 36 147 84 66 61 89 121 88 234 0 129 -48 214 -146 263 -92 45 -158 53 -412
54 l-233 0 0 -605z m536 448 c47 -25 91 -73 100 -109 12 -46 -1 -143 -23 -172
-49 -66 -141 -92 -335 -92 l-138 0 0 201 0 201 178 -4 c158 -3 181 -6 218 -25z"/>
<path d="M27130 1485 l0 -605 400 0 400 0 0 65 0 65 -262 2 c-145 2 -291 3
-326 3 l-62 0 0 218 0 217 290 0 c327 0 296 -9 284 83 l-7 47 -286 2 -286 3
-3 188 -2 187 310 0 310 0 0 65 0 65 -380 0 -380 0 0 -605z"/>
<path d="M30798 2023 c-3 -38 -5 -310 -7 -605 l-2 -538 76 0 75 0 0 274 0 273
91 -1 92 -2 165 -272 164 -272 90 0 c69 0 87 3 81 13 -155 250 -333 540 -333
543 0 1 27 11 60 20 148 41 232 151 233 303 1 143 -43 223 -152 278 -89 44
-156 53 -408 53 l-221 0 -4 -67z m535 -92 c65 -32 99 -90 99 -170 0 -91 -28
-132 -117 -173 -43 -19 -71 -22 -212 -26 l-163 -4 0 202 0 202 173 -4 c156 -3
176 -6 220 -27z"/>
<path d="M31820 1485 l0 -605 263 0 c303 0 355 8 486 71 200 97 311 285 312
528 1 109 -21 212 -62 298 -45 96 -149 198 -249 246 -131 62 -165 67 -474 67
l-276 0 0 -605z m620 450 c173 -60 274 -200 287 -396 14 -205 -55 -366 -191
-448 -101 -60 -167 -73 -373 -74 -101 0 -185 1 -187 4 -2 2 -7 215 -11 472
l-7 469 214 -4 c176 -4 222 -8 268 -23z"/>
<path d="M34396 2078 c5 -7 64 -98 133 -203 68 -104 164 -252 213 -328 l88
-138 0 -265 0 -264 75 0 75 0 0 262 0 262 69 106 c248 380 371 570 371 575 0
3 -37 5 -82 5 l-83 -1 -99 -157 c-55 -86 -133 -208 -174 -270 l-75 -113 -33
52 c-19 28 -95 150 -170 270 l-136 219 -90 0 c-69 0 -87 -3 -82 -12z"/>
<path d="M36392 2028 l3 -63 201 -3 202 -2 -6 -540 -5 -540 77 0 76 0 0 540 0
540 200 0 200 0 0 65 0 65 -475 0 -476 0 3 -62z"/>
<path d="M37510 1485 l0 -605 400 0 400 0 0 65 0 65 -227 0 c-126 0 -272 3
-325 7 l-98 6 0 214 0 213 285 0 285 0 0 65 0 65 -283 0 -284 0 -6 143 c-4 78
-7 163 -7 190 l0 47 310 0 310 0 0 65 0 65 -380 0 -380 0 0 -605z"/>
<path d="M38530 1485 l0 -605 76 0 75 0 -3 510 c-2 281 -2 510 0 510 2 0 10
-17 18 -37 8 -21 106 -251 217 -510 l202 -473 45 0 45 0 217 508 217 507 1
-507 0 -508 75 0 75 0 0 605 0 605 -107 0 -108 0 -25 -59 c-92 -218 -386 -881
-390 -881 -3 0 -52 109 -109 243 -57 133 -149 344 -204 470 l-100 227 -109 0
-108 0 0 -605z"/>
</g>
</svg>
